<svg width="128" height="128" viewBox="0 0 128 128" fill="none" xmlns="http://www.w3.org/2000/svg">
  <rect width="128" height="128" rx="28" fill="url(#paint0_linear_1_2)"/>
  <path d="M36 36C36 31.5817 39.5817 28 44 28H74C78.4183 28 82 31.5817 82 36V52C82 56.4183 78.4183 60 74 60H44C39.5817 60 36 56.4183 36 52V36Z" fill="white" fill-opacity="0.95"/>
  <path d="M46 44H72" stroke="#6D45FF" stroke-width="6" stroke-linecap="round"/>
  <path d="M46 52H66" stroke="#A38BFF" stroke-width="6" stroke-linecap="round"/>
  <path d="M50 72C50 67.5817 53.5817 64 58 64H88C92.4183 64 96 67.5817 96 72V88C96 92.4183 92.4183 96 88 96H58C53.5817 96 50 92.4183 50 88V72Z" fill="white" fill-opacity="0.92"/>
  <path d="M60 80H86" stroke="#20B7B3" stroke-width="6" stroke-linecap="round"/>
  <path d="M60 88H78" stroke="#6EE7E0" stroke-width="6" stroke-linecap="round"/>
  <circle cx="40" cy="84" r="16" fill="#1F1B3A" fill-opacity="0.94"/>
  <path d="M34 84L38 88L46 80" stroke="white" stroke-width="5" stroke-linecap="round" stroke-linejoin="round"/>
  <defs>
    <linearGradient id="paint0_linear_1_2" x1="16" y1="12" x2="112" y2="116" gradientUnits="userSpaceOnUse">
      <stop stop-color="#8B5CF6"/>
      <stop offset="1" stop-color="#0EA5E9"/>
    </linearGradient>
  </defs>
</svg>
